<svg width="468" height="436" viewBox="0 0 468 436" fill="none" xmlns="http://www.w3.org/2000/svg">
<path d="M118.968 0.478849C118.054 0.551983 115.092 0.881086 112.386 1.21019C58.0835 7.49973 13.5083 48.5646 2.64785 102.282C-2.21557 126.416 0.197857 157.388 8.90082 183.57C18.1157 211.105 33.5836 235.166 59.985 262.994C72.491 276.158 83.1686 286.031 118.054 316.747C126.501 324.171 135.898 332.471 138.897 335.214C176.341 368.856 202.341 397.085 224.683 428.35L229.437 435.042H234.264L239.091 435.005L243.844 427.985C264.212 397.926 288.164 370.94 323.743 337.993C330.728 331.484 338.663 324.353 361.298 304.242C396.256 273.086 414.137 255.132 428.618 236.592C452.13 206.425 464.015 177.975 467.525 143.237C468.22 136.07 468.147 118.92 467.342 112.703C463.503 83.2667 451.216 57.9623 430.848 37.5944C410.48 17.2266 385.139 4.90346 355.74 1.10049C348.682 0.222879 333.324 0.222879 326.12 1.10049C299.317 4.50123 275.694 15.2519 255.911 33.0601C248.927 39.3497 241.065 48.3086 236.348 55.366C235.251 57.0115 234.264 58.3645 234.154 58.3645C234.044 58.3645 233.057 57.0115 231.96 55.366C227.243 48.3086 219.381 39.3497 212.397 33.0601C192.979 15.5811 169.613 4.79376 143.724 1.35646C138.385 0.625117 123.173 0.113178 118.968 0.478849Z" fill="#D6C4B5"/>
</svg>
